<?xml version="1.0" encoding="utf-8"?>
<!-- Generator: Adobe Illustrator 16.0.0, SVG Export Plug-In . SVG Version: 6.00 Build 0)  -->
<!DOCTYPE svg PUBLIC "-//W3C//DTD SVG 1.1//EN" "http://www.w3.org/Graphics/SVG/1.1/DTD/svg11.dtd">
<svg version="1.1" id="Layer_1" xmlns="http://www.w3.org/2000/svg" xmlns:xlink="http://www.w3.org/1999/xlink" x="0px" y="0px"
	 width="134px" height="163px" viewBox="0 0 134 163" enable-background="new 0 0 134 163" xml:space="preserve">
<g id="Layer_1_1_">
</g>
<path fill="#FFDF00" stroke="#333333" stroke-width="4" stroke-miterlimit="10" d="M10,35.512V58c3,0,4.5,2.015,4.5,4.5S13,67,10,67
	v85.512c36,0.5,72.5-36.5,72-72C81.5,45.012,47,35.012,10,35.512z"/>
<circle fill="#333333" stroke="#333333" stroke-miterlimit="10" cx="20.5" cy="48.5" r="4.5"/>
<path fill="none" stroke="#333333" stroke-width="2.2332" stroke-miterlimit="10" d="M20.5,60.926c0,0,27.915-39.453,46.523-39.453
	c18.607,0,27.17,13.767,39.453,13.767c12.28,0,20.844-15.256,20.844-27.166"/>
<g>
	<g>
		<g>
			<g>
				<defs>
					<rect id="SVGID_1_" x="8" y="56" width="7" height="13"/>
				</defs>
				<clipPath id="SVGID_2_">
					<use xlink:href="#SVGID_1_"  overflow="visible"/>
				</clipPath>
				<circle clip-path="url(#SVGID_2_)" fill="#333333" stroke="#333333" stroke-miterlimit="10" cx="8.5" cy="62.5" r="4.5"/>
			</g>
		</g>
	</g>
</g>
<path fill="#FFFFFF" stroke="#333333" stroke-width="4.9997" stroke-miterlimit="10" d="M82.999,79.098
	C82.723,59.412,74.068,46.01,60.5,37.234C46.932,46.01,38.277,59.412,38.001,79.098c-0.278,19.733,8.604,39.828,22.499,56.018
	C74.393,118.926,83.277,98.831,82.999,79.098z"/>
<line fill="none" stroke="#333333" stroke-width="3" stroke-miterlimit="10" x1="52.5" y1="44" x2="52.5" y2="123"/>
<line fill="none" stroke="#333333" stroke-width="3.7795" stroke-miterlimit="10" x1="40.412" y1="98" x2="80.588" y2="98"/>
<line fill="none" stroke="#333333" stroke-width="3" stroke-miterlimit="10" x1="68.5" y1="45" x2="68.5" y2="124"/>
<line fill="none" stroke="#333333" stroke-width="4" stroke-miterlimit="10" x1="38" y1="70" x2="83" y2="70"/>
</svg>
