<?xml version="1.0" encoding="utf-8"?>
<!-- Generator: Adobe Illustrator 16.0.0, SVG Export Plug-In . SVG Version: 6.00 Build 0)  -->
<!DOCTYPE svg PUBLIC "-//W3C//DTD SVG 1.1//EN" "http://www.w3.org/Graphics/SVG/1.1/DTD/svg11.dtd">
<svg version="1.1" xmlns="http://www.w3.org/2000/svg" xmlns:xlink="http://www.w3.org/1999/xlink" x="0px" y="0px" width="134px"
	 height="163px" viewBox="31.5 0 134 163" enable-background="new 31.5 0 134 163" xml:space="preserve">
<g id="Layer_1">
</g>
<g id="Bee">
	<path fill="#FFDF00" stroke="#333333" stroke-width="4" stroke-miterlimit="10" d="M39,35.512V58c3,0,4.5,2.015,4.5,4.5
		S42,67,39,67v85.512c36,0.5,72.5-36.5,72-72C110.5,45.012,76,35.012,39,35.512z"/>
	<circle fill="#333333" stroke="#333333" stroke-miterlimit="10" cx="49.5" cy="48.5" r="4.5"/>
	<path fill="none" stroke="#333333" stroke-width="2.2332" stroke-miterlimit="10" d="M49.5,60.926c0,0,27.915-39.453,46.523-39.453
		s27.17,13.767,39.453,13.767c12.281,0,20.844-15.256,20.844-27.166"/>
	<g>
		<g>
			<g>
				<defs>
					<rect id="SVGID_1_" x="37" y="56" width="7" height="13"/>
				</defs>
				<clipPath id="SVGID_2_">
					<use xlink:href="#SVGID_1_"  overflow="visible"/>
				</clipPath>
				<circle clip-path="url(#SVGID_2_)" fill="#333333" stroke="#333333" stroke-miterlimit="10" cx="37.5" cy="62.5" r="4.5"/>
			</g>
		</g>
	</g>
	<path fill="#FFFFFF" stroke="#333333" stroke-width="4.9997" stroke-miterlimit="10" d="M111.999,79.098
		c-0.276-19.686-8.931-33.088-22.499-41.864C75.932,46.01,67.277,59.412,67.001,79.098c-0.278,19.733,8.604,39.828,22.499,56.018
		C103.393,118.926,112.277,98.831,111.999,79.098z"/>
	<line fill="none" stroke="#333333" stroke-width="3" stroke-miterlimit="10" x1="81.5" y1="44" x2="81.5" y2="123"/>
	<line fill="none" stroke="#333333" stroke-width="3.7795" stroke-miterlimit="10" x1="69.412" y1="98" x2="109.588" y2="98"/>
	<line fill="none" stroke="#333333" stroke-width="3" stroke-miterlimit="10" x1="97.5" y1="45" x2="97.5" y2="124"/>
	<line fill="none" stroke="#333333" stroke-width="4" stroke-miterlimit="10" x1="67" y1="70" x2="112" y2="70"/>
</g>
</svg>
